<svg xmlns="http://www.w3.org/2000/svg" viewBox="0 0 200 200" fill="none">
  <!-- Heart background -->
  <path d="M100 175 C 60 145, 20 115, 20 75 C 20 45, 45 25, 70 25 C 85 25, 95 35, 100 50 C 105 35, 115 25, 130 25 C 155 25, 180 45, 180 75 C 180 115, 140 145, 100 175 Z"
        fill="#f5f1e3"/>

  <!-- Dog silhouette (left) -->
  <path d="M62 145
           C 60 130, 58 115, 58 100
           C 58 90, 60 82, 64 78
           L 64 60
           C 64 55, 67 52, 70 55
           L 75 65
           C 78 62, 82 60, 86 60
           C 90 60, 94 62, 96 66
           L 96 145 Z"
        fill="#1d5a36"/>

  <!-- Cat silhouette (right) -->
  <path d="M115 145
           L 115 90
           C 115 82, 118 76, 122 73
           L 124 60
           C 124 56, 127 55, 129 58
           L 134 70
           L 138 58
           C 140 55, 143 56, 143 60
           L 145 73
           C 149 76, 152 82, 152 90
           L 152 145 Z"
        fill="#1d5a36"/>

  <!-- Paw print on dog body -->
  <g fill="#f5f1e3">
    <ellipse cx="82" cy="105" rx="3.5" ry="4.5"/>
    <ellipse cx="92" cy="100" rx="3.5" ry="4.5"/>
    <ellipse cx="73" cy="110" rx="3" ry="4"/>
    <ellipse cx="86" cy="123" rx="7" ry="6"/>
  </g>
</svg>
